<svg width="10516" height="694" viewBox="0 0 10516 694" fill="none" xmlns="http://www.w3.org/2000/svg">
<g clip-path="url(#clip0_1548_4923)">
<path d="M144.518 144.496H152.549V357.739H144.518V144.496ZM160.58 144.496H168.611V357.739H160.58V144.496ZM208.803 144.496H216.834V357.739H208.803V144.496ZM365.13 144.496H373.161V357.739H365.13V144.496ZM417.392 144.496H425.423V357.739H417.392V144.496ZM468.07 144.496H476.101V357.739H468.07V144.496ZM481.13 144.496H489.161V357.739H481.141L481.13 144.496ZM494.209 144.496H502.241V357.739H494.209V144.496ZM508.908 144.496H516.939V357.739H508.911L508.908 144.496ZM523.604 144.496H531.635V357.739H523.604V144.496ZM564.461 144.496H572.492V357.739H564.45L564.461 144.496ZM665.763 144.496H673.794V357.739H665.763V144.496ZM771.431 144.496H779.459V357.739H771.428L771.431 144.496ZM800.333 144.496H808.364V357.739H800.333V144.496ZM821.229 144.496H829.26V357.739H821.229V144.496ZM834.086 144.496H842.117V357.739H834.086V144.496ZM261.84 144.496H269.872V357.739H261.84V144.496ZM181.476 144.496H195.938V357.739H181.476V144.496ZM276.913 144.496H291.372V357.739H276.913V144.496ZM343.926 144.496H358.385V357.739H343.926V144.496ZM378.234 144.496H392.693V357.739H378.234V144.496ZM432.151 144.496H446.611V357.739H432.151V144.496ZM585.869 144.496H608.359V357.739H585.869V144.496ZM615.247 144.496H632.912V357.739H615.228L615.247 144.496ZM646.247 144.496H660.707V357.739H646.247V144.496ZM687.239 144.496H711.349V357.739H687.239V144.496ZM734.453 144.496H758.566V357.739H734.453V144.496ZM224.874 144.496H253.793V357.739H224.874V144.496ZM299.83 144.496H322.32V357.739H299.83V144.496Z" fill="white"/>
<path d="M154.912 547.07V425.015H200.713C208.366 424.72 216.001 425.979 223.154 428.716C228.637 431.06 233.259 435.045 236.385 440.124C239.482 444.929 241.145 450.518 241.177 456.236C241.177 461.449 239.706 466.556 236.932 470.97C233.806 475.832 229.358 479.7 224.108 482.119C230.845 483.851 236.831 487.738 241.155 493.186C245.156 498.505 247.252 505.016 247.105 511.67C247.152 517.194 245.914 522.654 243.489 527.617C241.439 532.067 238.359 535.965 234.504 538.989C230.491 541.869 225.948 543.924 221.136 545.038C214.684 546.517 208.076 547.204 201.458 547.084L154.912 547.07ZM171.079 476.307H197.474C202.629 476.508 207.788 476.032 212.819 474.891C216.501 473.957 219.766 471.821 222.096 468.82C224.264 465.7 225.36 461.96 225.216 458.163C225.291 454.394 224.279 450.683 222.302 447.473C220.415 444.426 217.483 442.171 214.053 441.13C207.968 439.73 201.722 439.156 195.483 439.422H171.085L171.079 476.307ZM171.079 532.671H201.463C205.139 532.767 208.816 532.574 212.461 532.094C215.758 531.558 218.923 530.4 221.788 528.681C224.405 526.991 226.529 524.639 227.944 521.863C229.596 518.709 230.429 515.191 230.366 511.632C230.479 507.385 229.257 503.209 226.871 499.694C224.516 496.32 221.101 493.83 217.168 492.619C211.354 491.046 205.336 490.357 199.316 490.574H171.079V532.671ZM270.709 487.637C269.685 470.244 275.544 453.147 287.022 440.038C292.431 434.358 298.983 429.889 306.246 426.926C313.509 423.963 321.318 422.573 329.157 422.849C339.862 422.703 350.402 425.499 359.627 430.932C368.594 436.233 375.791 444.07 380.311 453.456C385.183 463.678 387.617 474.891 387.421 486.213C387.627 497.723 385.066 509.115 379.954 519.429C375.313 528.816 367.903 536.553 358.725 541.596C349.652 546.598 339.449 549.192 329.089 549.132C318.248 549.31 307.576 546.433 298.294 540.829C289.364 535.415 282.211 527.508 277.715 518.082C273.078 508.604 270.682 498.188 270.709 487.637V487.637ZM287.368 487.893C286.675 500.593 290.956 513.064 299.304 522.66C303.069 526.783 307.676 530.051 312.812 532.242C317.948 534.434 323.495 535.498 329.078 535.363C334.693 535.505 340.274 534.431 345.436 532.215C350.598 529.999 355.219 526.692 358.984 522.523C367.406 512.339 371.621 499.324 370.768 486.136C370.991 477.208 369.299 468.335 365.805 460.115C362.726 453.027 357.595 447.022 351.073 442.876C344.556 438.781 336.994 436.656 329.298 436.756C323.843 436.673 318.427 437.671 313.361 439.693C308.295 441.716 303.68 444.721 299.782 448.537C295.17 453.92 291.693 460.179 289.56 466.938C287.427 473.698 286.681 480.819 287.368 487.874V487.893ZM413.907 547.078V425.015H430.055V532.66H490.161V547.07L413.907 547.078ZM516.045 547.078V425.015H604.303V439.422H532.192V476.815H599.717V491.137H532.192V532.674H607.135V547.084L516.045 547.078ZM666.815 547.078V439.422H626.582V425.015H723.33V439.422H682.951V547.07L666.815 547.078ZM738.224 487.637C737.213 470.241 743.087 453.146 754.578 440.047C759.987 434.366 766.538 429.897 773.801 426.934C781.064 423.97 788.872 422.581 796.711 422.857C807.416 422.711 817.956 425.507 827.181 430.94C836.149 436.241 843.346 444.078 847.865 453.464C852.739 463.685 855.173 474.899 854.975 486.221C855.175 497.733 852.608 509.124 847.491 519.438C842.834 528.841 835.399 536.585 826.194 541.62C817.12 546.622 806.917 549.217 796.557 549.157C785.709 549.335 775.03 546.452 765.746 540.837C756.834 535.416 749.698 527.51 745.216 518.09C740.583 508.609 738.191 498.19 738.224 487.637V487.637ZM754.883 487.893C754.19 500.593 758.471 513.064 766.819 522.66C770.584 526.783 775.191 530.051 780.327 532.242C785.463 534.434 791.01 535.498 796.593 535.363C802.225 535.522 807.824 534.459 813.005 532.245C818.186 530.031 822.826 526.719 826.603 522.539C835.025 512.356 839.24 499.34 838.385 486.153C838.56 477.213 836.815 468.339 833.268 460.132C830.188 453.044 825.057 447.04 818.536 442.892C812.022 438.8 804.466 436.675 796.774 436.772C791.32 436.689 785.903 437.688 780.836 439.71C775.77 441.732 771.154 444.738 767.256 448.554C762.654 453.937 759.185 460.194 757.059 466.95C754.933 473.706 754.193 480.822 754.883 487.871V487.893Z" fill="white"/>
</g>
<path fill-rule="evenodd" clip-rule="evenodd" d="M1495.16 469.946H1433.87L1387.92 294.612C1385.73 286.546 1381.1 279.416 1374.29 276.055C1357.29 267.61 1338.55 260.889 1318.11 257.499V250.749H1416.84C1430.47 250.749 1440.69 260.889 1442.39 272.666L1466.24 399.14L1527.49 250.749H1587.08L1495.16 469.946ZM1621.15 469.946H1563.27L1610.93 250.749H1668.82L1621.15 469.946ZM1743.68 311.474C1745.38 299.668 1755.6 292.918 1767.52 292.918C1786.26 291.223 1806.67 294.613 1823.7 303.029L1833.92 255.835C1816.89 249.084 1798.15 245.694 1781.15 245.694C1724.97 245.694 1684.09 276.056 1684.09 318.195C1684.09 350.252 1713.05 367.084 1733.49 377.224C1755.6 387.335 1764.12 394.086 1762.41 404.197C1762.41 419.363 1745.38 426.113 1728.38 426.113C1707.94 426.113 1687.5 421.058 1668.79 412.613L1658.57 459.836C1679.01 468.252 1701.13 471.642 1721.57 471.642C1784.56 473.307 1823.7 442.975 1823.7 397.446C1823.7 340.112 1743.68 336.751 1743.68 311.474V311.474ZM2026.28 469.946L1980.32 250.749H1930.95C1920.73 250.749 1910.51 257.499 1907.11 267.61L1822 469.946H1881.59L1893.48 437.918H1966.69L1973.5 469.946H2026.28ZM1939.49 309.783L1956.49 392.395H1908.83L1939.49 309.783Z" fill="white"/>
<path fill-rule="evenodd" clip-rule="evenodd" d="M2889.11 495.929C2854.66 525.649 2809.99 543.591 2761.17 543.591C2652.24 543.591 2563.93 454.258 2563.93 344.06C2563.93 233.862 2652.24 144.529 2761.17 144.529C2809.99 144.529 2854.66 162.47 2889.11 192.191C2923.55 162.47 2968.22 144.529 3017.04 144.529C3125.97 144.529 3214.28 233.862 3214.28 344.06C3214.28 454.258 3125.97 543.591 3017.04 543.591C2968.22 543.591 2923.55 525.649 2889.11 495.929Z" fill="white"/>
<path fill-rule="evenodd" clip-rule="evenodd" d="M2889.11 495.929C2931.52 459.331 2958.41 404.873 2958.41 344.06C2958.41 283.247 2931.52 228.788 2889.11 192.191C2923.55 162.47 2968.22 144.529 3017.04 144.529C3125.98 144.529 3214.28 233.862 3214.28 344.06C3214.28 454.258 3125.98 543.591 3017.04 543.591C2968.22 543.591 2923.55 525.649 2889.11 495.929Z" fill="#F4F4F4"/>
<path fill-rule="evenodd" clip-rule="evenodd" d="M2889.1 495.929C2931.52 459.331 2958.41 404.873 2958.41 344.06C2958.41 283.247 2931.52 228.788 2889.1 192.19C2846.69 228.788 2819.8 283.247 2819.8 344.06C2819.8 404.872 2846.69 459.331 2889.1 495.929Z" fill="white"/>
<path fill-rule="evenodd" clip-rule="evenodd" d="M3745.44 245.694L3650.79 455.162H3764.1L3778.15 421.764H3810.26L3824.31 455.162H3949.03V429.671L3960.15 455.162H4024.67L4035.78 429.133V455.162H4295.18L4326.72 422.631L4356.26 455.162L4489.49 455.431L4394.54 351.013L4489.49 245.694H4358.32L4327.62 277.624L4299.02 245.694H4016.82L3992.59 299.76L3967.79 245.694H3854.71V270.317L3842.13 245.694H3745.44ZM4132.81 275.435H4281.77L4327.33 324.648L4374.36 275.435H4419.92L4350.69 350.98L4419.92 425.653H4372.29L4326.73 375.869L4279.46 425.653H4132.81V275.435ZM4169.59 334.001V306.563V306.537H4262.54L4303.1 350.418L4260.74 394.539H4169.59V364.584H4250.86V334.001H4169.59ZM3767.38 275.435H3822.62L3885.4 417.476V275.435H3945.91L3994.4 377.278L4039.1 275.435H4099.3V425.742H4062.67L4062.37 307.963L4008.96 425.742H3976.19L3922.48 307.963V425.742H3847.12L3832.83 392.045H3755.64L3741.38 425.712H3701L3767.38 275.435ZM3768.82 360.899L3794.25 300.871L3819.65 360.899H3768.82Z" fill="white"/>
<path fill-rule="evenodd" clip-rule="evenodd" d="M5038.24 440.544H4993.27C4990.19 440.544 4987.58 442.78 4987.1 445.817L4968.91 561.121C4968.55 563.397 4970.31 565.447 4972.62 565.447H4994.09C4997.16 565.447 4999.78 563.211 5000.26 560.168L5005.16 529.07C5005.64 526.024 5008.26 523.791 5011.33 523.791H5025.57C5055.19 523.791 5072.28 509.457 5076.75 481.054C5078.76 468.628 5076.83 458.864 5071.01 452.024C5064.62 444.518 5053.28 440.544 5038.24 440.544ZM5043.42 482.657C5040.96 498.792 5028.64 498.792 5016.72 498.792H5009.93L5014.69 468.658C5014.97 466.838 5016.55 465.497 5018.39 465.497H5021.5C5029.62 465.497 5037.28 465.497 5041.24 470.124C5043.6 472.887 5044.32 476.989 5043.42 482.657ZM5172.65 482.14H5151.11C5149.28 482.14 5147.69 483.482 5147.41 485.304L5146.46 491.326L5144.95 489.144C5140.29 482.377 5129.9 480.117 5119.52 480.117C5095.73 480.117 5075.4 498.138 5071.45 523.419C5069.39 536.028 5072.31 548.086 5079.47 556.496C5086.03 564.227 5095.42 567.449 5106.59 567.449C5125.76 567.449 5136.39 555.121 5136.39 555.121L5135.43 561.106C5135.07 563.394 5136.83 565.444 5139.13 565.444H5158.52C5161.61 565.444 5164.21 563.208 5164.7 560.165L5176.33 486.467C5176.7 484.2 5174.95 482.14 5172.65 482.14ZM5142.63 524.049C5140.55 536.351 5130.79 544.608 5118.34 544.608C5112.09 544.608 5107.09 542.603 5103.88 538.803C5100.7 535.03 5099.49 529.657 5100.5 523.675C5102.44 511.477 5112.37 502.952 5124.63 502.952C5130.74 502.952 5135.72 504.981 5138.99 508.815C5142.27 512.688 5143.57 518.092 5142.63 524.049ZM5265.69 482.137H5287.33C5290.36 482.137 5292.13 485.535 5290.4 488.021L5218.44 591.903C5217.27 593.586 5215.35 594.587 5213.3 594.587H5191.69C5188.65 594.587 5186.87 591.161 5188.63 588.669L5211.04 557.038L5187.21 487.093C5186.38 484.662 5188.18 482.137 5190.76 482.137H5212.03C5214.79 482.137 5217.23 483.95 5218.02 486.594L5230.67 528.838L5260.52 484.878C5261.68 483.162 5263.63 482.137 5265.69 482.137Z" fill="white"/>
<path fill-rule="evenodd" clip-rule="evenodd" d="M5500.29 561.118L5518.75 443.706C5519.03 441.883 5520.61 440.541 5522.44 440.535H5543.22C5545.51 440.535 5547.27 442.592 5546.91 444.868L5528.71 560.166C5528.24 563.208 5525.62 565.445 5522.54 565.445H5503.99C5501.69 565.445 5499.93 563.394 5500.29 561.118ZM5358.96 440.541H5313.99C5310.92 440.541 5308.3 442.778 5307.82 445.814L5289.64 561.118C5289.28 563.394 5291.04 565.445 5293.33 565.445H5316.41C5318.55 565.445 5320.39 563.881 5320.72 561.751L5325.88 529.067C5326.36 526.021 5328.98 523.788 5332.05 523.788H5346.28C5375.91 523.788 5393 509.454 5397.47 481.051C5399.48 468.625 5397.54 458.861 5391.73 452.021C5385.34 444.515 5374.01 440.541 5358.96 440.541ZM5364.15 482.654C5361.7 498.79 5349.37 498.79 5337.44 498.79H5330.66L5335.43 468.655C5335.71 466.836 5337.28 465.494 5339.13 465.494H5342.24C5350.35 465.494 5358.02 465.494 5361.97 470.122C5364.33 472.885 5365.05 476.986 5364.15 482.654ZM5493.36 482.137H5471.85C5470 482.137 5468.43 483.479 5468.15 485.302L5467.2 491.323L5465.68 489.141C5461.02 482.375 5450.64 480.114 5440.26 480.114C5416.46 480.114 5396.15 498.135 5392.19 523.417C5390.14 536.025 5393.05 548.083 5400.2 556.493C5406.78 564.225 5416.16 567.447 5427.33 567.447C5446.5 567.447 5457.13 555.118 5457.13 555.118L5456.17 561.103C5455.81 563.391 5457.57 565.442 5459.88 565.442H5479.27C5482.34 565.442 5484.95 563.205 5485.43 560.163L5497.08 486.464C5497.43 484.197 5495.67 482.137 5493.36 482.137ZM5463.35 524.047C5461.28 536.348 5451.51 544.606 5439.06 544.606C5432.81 544.606 5427.81 542.601 5424.6 538.8C5421.41 535.027 5420.22 529.654 5421.22 523.672C5423.17 511.474 5433.09 502.949 5445.35 502.949C5451.46 502.949 5456.43 504.978 5459.71 508.812C5463 512.685 5464.3 518.089 5463.35 524.047Z" fill="white"/>
<path d="M5204.63 399.289L5210.16 364.177L5197.84 363.891H5139.04L5179.91 104.791C5180.03 104.008 5180.44 103.279 5181.05 102.761C5181.65 102.243 5182.42 101.958 5183.23 101.958H5282.37C5315.28 101.958 5338 108.807 5349.86 122.326C5355.42 128.668 5358.96 135.295 5360.67 142.589C5362.47 150.241 5362.5 159.384 5360.75 170.535L5360.62 171.349V178.494L5366.18 181.644C5370.86 184.128 5374.58 186.972 5377.43 190.227C5382.19 195.649 5385.27 202.541 5386.57 210.711C5387.91 219.115 5387.47 229.114 5385.27 240.434C5382.73 253.456 5378.63 264.798 5373.09 274.078C5368 282.629 5361.51 289.72 5353.8 295.218C5346.44 300.439 5337.7 304.404 5327.82 306.941C5318.24 309.433 5307.33 310.693 5295.35 310.693H5287.63C5282.12 310.693 5276.76 312.68 5272.55 316.243C5268.33 319.879 5265.54 324.844 5264.69 330.278L5264.1 333.44L5254.34 395.324L5253.89 397.597C5253.78 398.318 5253.58 398.677 5253.28 398.92C5253.02 399.14 5252.64 399.289 5252.27 399.289H5204.63Z" fill="white"/>
<path d="M5371.46 172.177C5371.17 174.069 5370.83 176.003 5370.45 177.991C5357.37 245.12 5312.64 268.31 5255.51 268.31H5226.42C5219.44 268.31 5213.55 273.384 5212.46 280.275L5197.56 374.729L5193.35 401.501C5192.64 406.026 5196.13 410.106 5200.69 410.106H5252.29C5258.4 410.106 5263.58 405.667 5264.55 399.642L5265.05 397.019L5274.77 335.375L5275.39 331.995C5276.34 325.949 5281.54 321.51 5287.65 321.51H5295.37C5345.35 321.51 5384.48 301.216 5395.92 242.488C5400.7 217.955 5398.22 197.471 5385.58 183.064C5381.76 178.72 5377.01 175.116 5371.46 172.177Z" fill="#F4F4F4"/>
<path d="M5357.77 166.727C5355.77 166.146 5353.71 165.617 5351.59 165.142C5349.47 164.677 5347.29 164.264 5345.05 163.905C5337.21 162.637 5328.61 162.034 5319.41 162.034H5241.7C5239.78 162.034 5237.97 162.467 5236.34 163.25C5232.76 164.972 5230.09 168.366 5229.45 172.519L5212.91 277.225L5212.44 280.279C5213.53 273.388 5219.42 268.314 5226.4 268.314H5255.49C5312.62 268.314 5357.35 245.114 5370.43 177.995C5370.82 176.008 5371.15 174.073 5371.44 172.181C5368.13 170.427 5364.55 168.926 5360.69 167.647C5359.74 167.33 5358.76 167.023 5357.77 166.727Z" fill="white"/>
<path d="M5229.47 172.521C5230.11 168.367 5232.78 164.974 5236.36 163.261C5238 162.479 5239.81 162.046 5241.72 162.046H5319.43C5328.64 162.046 5337.23 162.648 5345.07 163.917C5347.31 164.276 5349.49 164.688 5351.61 165.153C5353.73 165.629 5355.79 166.158 5357.79 166.739C5358.78 167.035 5359.76 167.341 5360.72 167.648C5364.58 168.927 5368.17 170.438 5371.47 172.182C5375.36 147.375 5371.44 130.484 5358.03 115.189C5343.24 98.3517 5316.55 91.1431 5282.4 91.1431H5183.26C5176.28 91.1431 5170.33 96.2164 5169.25 103.119L5127.96 364.882C5127.14 370.061 5131.14 374.734 5136.36 374.734H5197.57L5212.94 277.226L5229.47 172.521Z" fill="white"/>
<path fill-rule="evenodd" clip-rule="evenodd" d="M6417.89 455.489V368.168H6462.96C6481.43 368.168 6497.01 361.98 6509.72 349.776L6512.77 346.682C6535.98 321.414 6534.46 282.051 6509.72 258.674C6497.35 246.297 6480.41 239.594 6462.96 239.937H6390.61V455.489H6417.89ZM6417.89 341.699V266.411H6463.64C6473.47 266.411 6482.79 270.193 6489.74 277.068C6504.48 291.507 6504.82 315.572 6490.59 330.526C6483.64 337.918 6473.81 342.043 6463.64 341.699H6417.89ZM6640.02 319.525C6628.33 308.696 6612.41 303.196 6592.24 303.196C6566.32 303.196 6546.84 312.822 6533.96 331.901L6558.02 347.2C6566.83 334.136 6578.86 327.604 6594.11 327.604C6603.77 327.604 6613.08 331.214 6620.37 337.746C6627.49 343.934 6631.55 352.872 6631.55 362.326V368.686C6621.05 362.842 6607.83 359.748 6591.57 359.748C6572.59 359.748 6557.34 364.217 6545.99 373.327C6534.64 382.438 6528.88 394.47 6528.88 409.768C6528.54 423.691 6534.47 436.927 6544.97 445.865C6555.65 455.491 6569.2 460.304 6585.13 460.304C6603.94 460.304 6618.84 451.882 6630.2 435.036H6631.38V455.491H6657.47V364.561C6657.47 345.481 6651.71 330.354 6640.02 319.525ZM6565.99 428.331C6560.39 424.205 6557 417.502 6557 410.282C6557 402.203 6560.73 395.5 6568.02 390.171C6575.47 384.842 6584.79 382.092 6595.81 382.092C6611.06 381.92 6622.92 385.358 6631.4 392.234C6631.4 403.922 6626.82 414.064 6617.84 422.658C6609.7 430.909 6598.69 435.55 6587.17 435.55C6579.54 435.722 6572.09 433.144 6565.99 428.331ZM6716.1 520.295L6807.25 308.009H6777.6L6735.42 413.894H6734.91L6691.7 308.009H6662.05L6721.86 446.038L6687.98 520.295H6716.1Z" fill="white"/>
<path d="M6323.73 349.259C6323.73 340.837 6323.05 332.414 6321.7 324.163H6206.66V371.777H6272.56C6269.85 387.075 6261.04 400.827 6248.17 409.421V440.362H6287.47C6310.52 418.875 6323.73 387.075 6323.73 349.259Z" fill="white"/>
<path d="M6206.66 470.27C6239.53 470.27 6267.31 459.269 6287.47 440.361L6248.17 409.421C6237.15 416.984 6223.09 421.281 6206.66 421.281C6174.8 421.281 6147.87 399.451 6138.21 370.229H6097.71V402.201C6118.39 443.971 6160.57 470.27 6206.66 470.27Z" fill="white"/>
<path d="M6138.22 370.228C6133.13 354.93 6133.13 338.256 6138.22 322.786V290.986H6097.72C6080.26 325.88 6080.26 367.134 6097.72 402.028L6138.22 370.228Z" fill="white"/>
<path d="M6206.66 271.735C6224.11 271.391 6240.88 278.095 6253.42 290.3L6288.32 254.89C6266.13 233.919 6236.99 222.402 6206.66 222.746C6160.57 222.746 6118.39 249.218 6097.71 290.987L6138.21 322.959C6147.87 293.565 6174.8 271.735 6206.66 271.735Z" fill="white"/>
<path fill-rule="evenodd" clip-rule="evenodd" d="M7369.35 258.204C7382.94 259.35 7396.53 251.328 7405.02 241.156C7413.37 230.698 7418.89 216.658 7417.47 202.332C7405.44 202.905 7390.58 210.355 7382.09 220.813C7374.31 229.838 7367.65 244.451 7369.35 258.204ZM7531 442.726V219.381H7613.79C7656.53 219.381 7686.39 249.179 7686.39 292.731C7686.39 336.283 7655.97 366.368 7612.66 366.368H7565.25V442.726H7531ZM7417.35 260.924C7405.38 260.227 7394.45 264.568 7385.63 268.074C7379.96 270.331 7375.15 272.242 7371.49 272.242C7367.39 272.242 7362.38 270.229 7356.76 267.969C7349.4 265.007 7340.98 261.621 7332.15 261.784C7311.91 262.07 7293.08 273.674 7282.75 292.155C7261.52 329.117 7277.23 383.843 7297.76 413.928C7307.8 428.827 7319.83 445.159 7335.68 444.586C7342.66 444.32 7347.67 442.165 7352.87 439.935C7358.84 437.368 7365.05 434.701 7374.75 434.701C7384.1 434.701 7390.04 437.298 7395.74 439.792C7401.16 442.162 7406.36 444.439 7414.09 444.299C7430.51 444.013 7440.84 429.4 7450.89 414.501C7461.73 398.51 7466.5 382.904 7467.22 380.535L7467.22 380.532C7467.26 380.399 7467.29 380.307 7467.3 380.261C7467.29 380.244 7467.15 380.182 7466.92 380.072C7463.29 378.392 7435.58 365.553 7435.32 331.122C7435.05 302.223 7457.3 287.581 7460.8 285.276C7461.01 285.136 7461.15 285.041 7461.22 284.992C7447.07 263.789 7424.99 261.497 7417.35 260.924ZM7748.94 444.442C7770.45 444.442 7790.41 433.411 7799.46 415.933H7800.17V442.723H7831.87V331.551C7831.87 299.317 7806.4 278.544 7767.2 278.544C7730.82 278.544 7703.93 299.604 7702.94 328.543H7733.8C7736.34 314.79 7748.94 305.764 7766.2 305.764C7787.15 305.764 7798.9 315.649 7798.9 333.844V346.164L7756.16 348.743C7716.39 351.178 7694.88 367.653 7694.88 396.306C7694.88 425.245 7717.1 444.442 7748.94 444.442ZM7758.15 417.938C7739.89 417.938 7728.28 409.056 7728.28 395.446C7728.28 381.406 7739.47 373.24 7760.84 371.951L7798.91 369.515V382.122C7798.91 403.039 7781.36 417.938 7758.15 417.938ZM7937.03 451.465C7923.3 490.576 7907.6 503.469 7874.2 503.469C7871.65 503.469 7863.16 503.183 7861.17 502.61V475.82C7863.3 476.106 7868.53 476.393 7871.22 476.393C7886.37 476.393 7894.86 469.946 7900.09 453.184L7903.21 443.299L7845.18 280.697H7880.99L7921.32 412.641H7922.03L7962.37 280.697H7997.18L7937.03 451.465ZM7565.23 248.605H7604.72C7634.44 248.605 7651.42 264.651 7651.42 292.873C7651.42 321.096 7634.44 337.284 7604.58 337.284H7565.23V248.605Z" fill="white"/>
<path d="M8748.16 459.633V310.477C8748.16 303.952 8749.44 297.49 8751.94 291.462C8754.44 285.434 8758.1 279.956 8762.71 275.343C8767.33 270.73 8772.81 267.071 8778.84 264.575C8784.87 262.079 8791.33 260.795 8797.85 260.797H8841.84C8854.99 260.825 8867.58 266.064 8876.86 275.367C8886.15 284.67 8891.36 297.276 8891.36 310.418V342.164C8891.36 355.344 8886.13 367.984 8876.81 377.304C8867.49 386.623 8854.85 391.859 8841.67 391.859H8779.45" stroke="white" stroke-width="13.2362" stroke-linecap="round" stroke-linejoin="round"/>
<path d="M8903.7 260.763H8922.76C8928.17 260.763 8933.36 262.912 8937.18 266.737C8941.01 270.562 8943.16 275.75 8943.16 281.16V392.602" stroke="white" stroke-width="13.2362" stroke-linecap="round" stroke-linejoin="round"/>
<path d="M8939.04 243.508L8930.39 234.842C8929.88 234.331 8929.47 233.724 8929.19 233.056C8928.92 232.388 8928.77 231.672 8928.77 230.949C8928.77 230.225 8928.92 229.509 8929.19 228.841C8929.47 228.173 8929.88 227.566 8930.39 227.055L8939.04 218.404C8939.55 217.892 8940.16 217.486 8940.83 217.208C8941.49 216.931 8942.21 216.789 8942.93 216.789C8943.66 216.789 8944.37 216.931 8945.04 217.208C8945.71 217.486 8946.32 217.892 8946.83 218.404L8955.49 227.055C8956 227.566 8956.41 228.173 8956.69 228.841C8956.97 229.509 8957.11 230.225 8957.11 230.949C8957.11 231.672 8956.97 232.388 8956.69 233.056C8956.41 233.724 8956 234.331 8955.49 234.842L8946.83 243.508C8946.32 244.02 8945.71 244.426 8945.04 244.703C8944.37 244.981 8943.66 245.123 8942.93 245.123C8942.21 245.123 8941.49 244.981 8940.83 244.703C8940.16 244.426 8939.55 244.02 8939.04 243.508" fill="white"/>
<path d="M8979.85 260.677H8998.8C9008.54 260.678 9017.89 264.55 9024.78 271.44L9069.09 315.738C9070.46 317.105 9072.07 318.191 9073.86 318.931C9075.64 319.672 9077.55 320.053 9079.48 320.053C9081.41 320.053 9083.32 319.672 9085.11 318.931C9086.89 318.191 9088.51 317.105 9089.87 315.738L9134.07 271.601C9137.48 268.188 9141.53 265.481 9145.99 263.634C9150.45 261.787 9155.22 260.837 9160.05 260.838H9175.45" stroke="white" stroke-width="13.2362" stroke-linecap="round" stroke-linejoin="round"/>
<path d="M8979.85 391.61H8998.8C9008.54 391.608 9017.89 387.737 9024.78 380.847L9069.09 336.563C9070.46 335.196 9072.07 334.11 9073.86 333.37C9075.64 332.629 9077.55 332.248 9079.48 332.248C9081.41 332.248 9083.32 332.629 9085.11 333.37C9086.89 334.11 9088.51 335.196 9089.87 336.563L9134.07 380.685C9137.48 384.098 9141.53 386.805 9145.99 388.652C9150.45 390.499 9155.22 391.449 9160.05 391.448H9175.45" stroke="white" stroke-width="13.2362" stroke-linecap="round" stroke-linejoin="round"/>
<path d="M8635.2 419.906C8630.53 419.92 8625.89 419.006 8621.57 417.216C8617.25 415.427 8613.32 412.797 8610.03 409.48L8573.68 373.218C8572.39 371.985 8570.68 371.297 8568.9 371.297C8567.12 371.297 8565.41 371.985 8564.13 373.218L8527.65 409.685C8524.35 413.002 8520.43 415.632 8516.1 417.422C8511.78 419.211 8507.15 420.125 8502.47 420.111H8495.31L8541.34 466.154C8548.25 473.055 8557.61 476.932 8567.38 476.932C8577.14 476.932 8586.51 473.055 8593.41 466.154L8639.57 419.979L8635.2 419.906Z" fill="white"/>
<path d="M8502.48 291.336C8507.16 291.325 8511.79 292.241 8516.11 294.03C8520.43 295.82 8524.35 298.447 8527.65 301.762L8564.14 338.244C8565.4 339.508 8567.12 340.217 8568.91 340.217C8570.7 340.217 8572.42 339.508 8573.68 338.244L8610.03 301.894C8613.33 298.579 8617.26 295.952 8621.58 294.162C8625.9 292.373 8630.53 291.457 8635.21 291.468H8639.61L8593.45 245.308C8590.03 241.887 8585.97 239.174 8581.51 237.322C8577.04 235.471 8572.25 234.518 8567.41 234.518C8562.58 234.518 8557.79 235.471 8553.32 237.322C8548.86 239.174 8544.8 241.887 8541.38 245.308L8495.35 291.336H8502.48Z" fill="white"/>
<path d="M8677.78 329.656L8649.92 301.796C8649.29 302.048 8648.62 302.182 8647.94 302.192H8635.26C8628.66 302.219 8622.33 304.855 8617.66 309.524L8581.25 345.801C8579.64 347.422 8577.71 348.707 8575.6 349.582C8573.48 350.458 8571.21 350.907 8568.92 350.904C8564.29 350.912 8559.85 349.082 8556.58 345.816L8520.09 309.333C8515.42 304.664 8509.1 302.029 8502.5 302.001H8486.91C8486.27 301.989 8485.63 301.86 8485.03 301.62L8457.03 329.627C8453.61 333.045 8450.89 337.104 8449.04 341.571C8447.19 346.038 8446.24 350.826 8446.24 355.662C8446.24 360.498 8447.19 365.286 8449.04 369.753C8450.89 374.22 8453.61 378.279 8457.03 381.697L8485.03 409.704C8485.63 409.464 8486.27 409.334 8486.91 409.323H8502.5C8509.1 409.29 8515.42 406.656 8520.09 401.991L8556.58 365.508C8559.9 362.336 8564.32 360.566 8568.91 360.566C8573.51 360.566 8577.93 362.336 8581.25 365.508L8617.6 401.859C8622.28 406.524 8628.6 409.158 8635.2 409.191H8647.88C8648.56 409.198 8649.24 409.337 8649.86 409.601L8677.72 381.741C8684.63 374.834 8688.5 365.47 8688.5 355.706C8688.5 345.942 8684.63 336.578 8677.72 329.671" fill="white"/>
<path d="M8786.01 446.946C8783.7 447.049 8781.41 447.398 8779.18 447.987V457.078C8780.89 457.68 8782.69 457.982 8784.5 457.973C8789.06 457.973 8791.22 456.433 8791.22 452.415C8791.22 448.647 8789.44 446.946 8786.01 446.946V446.946ZM8777.64 463.824V445.861H8778.9L8779.03 446.638C8781.36 446.016 8783.74 445.633 8786.14 445.494C8787.81 445.379 8789.46 445.857 8790.81 446.843C8791.54 447.56 8792.11 448.432 8792.47 449.396C8792.82 450.361 8792.96 451.392 8792.86 452.415C8792.95 453.557 8792.72 454.7 8792.2 455.721C8791.69 456.742 8790.9 457.602 8789.93 458.207C8788.28 459.018 8786.47 459.421 8784.63 459.381C8782.78 459.369 8780.94 459.088 8779.16 458.545V463.824H8777.64Z" fill="white"/>
<path d="M8804.31 446.903C8799.75 446.903 8797.72 448.37 8797.72 452.344C8797.72 456.317 8799.73 457.974 8804.31 457.974C8808.88 457.974 8810.88 456.508 8810.88 452.549C8810.88 448.59 8808.87 446.903 8804.31 446.903V446.903ZM8810.17 457.974C8808.42 459.06 8806.37 459.573 8804.31 459.441C8802.25 459.564 8800.2 459.052 8798.44 457.974C8797.62 457.321 8796.98 456.474 8796.57 455.508C8796.16 454.543 8795.99 453.49 8796.1 452.446C8796 451.401 8796.17 450.348 8796.58 449.381C8796.98 448.415 8797.63 447.564 8798.44 446.903C8800.2 445.818 8802.25 445.306 8804.31 445.437C8806.37 445.309 8808.42 445.821 8810.17 446.903C8810.99 447.557 8811.63 448.403 8812.04 449.365C8812.45 450.327 8812.61 451.376 8812.52 452.417C8812.62 453.465 8812.46 454.522 8812.05 455.492C8811.64 456.462 8810.99 457.315 8810.17 457.974" fill="white"/>
<path d="M8831.74 459.019L8826.67 448.109H8826.57L8821.57 459.019H8820.26L8814.84 445.822H8816.54L8821.04 456.863H8821.14L8826.04 445.822H8827.51L8832.54 456.863H8832.64L8837.04 445.822H8838.68L8833.27 459.019H8831.74Z" fill="white"/>
<path d="M8848.37 446.874C8844.15 446.874 8842.72 448.751 8842.5 451.464H8854.32C8854.21 448.458 8852.67 446.874 8848.46 446.874H8848.37ZM8848.46 459.382C8846.52 459.589 8844.57 459.066 8842.99 457.916C8842.23 457.222 8841.64 456.365 8841.26 455.411C8840.88 454.456 8840.72 453.428 8840.79 452.402C8840.73 451.338 8840.92 450.275 8841.35 449.298C8841.77 448.321 8842.42 447.456 8843.24 446.772C8844.77 445.815 8846.56 445.354 8848.37 445.452C8850.21 445.338 8852.05 445.783 8853.63 446.728C8855.54 448.003 8855.91 450.247 8855.91 452.798H8842.4C8842.4 455.496 8843.34 457.901 8848.44 457.901C8850.73 457.847 8853 457.592 8855.25 457.139V458.517C8852.97 458.993 8850.65 459.268 8848.33 459.338" fill="white"/>
<path d="M8860.3 459.015V445.818H8861.56L8861.7 446.595C8863.8 445.903 8866 445.517 8868.22 445.452H8868.41V446.918H8868.05C8865.94 446.964 8863.85 447.315 8861.84 447.959V458.986L8860.3 459.015Z" fill="white"/>
<path d="M8877.36 446.873C8873.13 446.873 8871.7 448.75 8871.49 451.463H8883.32C8883.19 448.457 8881.65 446.873 8877.46 446.873H8877.36ZM8877.46 459.381C8875.52 459.583 8873.57 459.061 8871.99 457.915C8871.26 457.212 8870.7 456.357 8870.35 455.411C8869.99 454.465 8869.85 453.452 8869.94 452.445C8869.88 451.381 8870.07 450.318 8870.5 449.341C8870.92 448.363 8871.57 447.498 8872.38 446.814C8873.92 445.858 8875.71 445.397 8877.52 445.495C8879.36 445.382 8881.18 445.827 8882.77 446.77C8884.67 448.046 8885.04 450.29 8885.04 452.841H8871.55C8871.55 455.539 8872.49 457.944 8877.59 457.944C8879.88 457.888 8882.15 457.633 8884.39 457.181V458.56C8882.11 459.035 8879.79 459.31 8877.46 459.381" fill="white"/>
<path d="M8901.7 447.781C8900 447.185 8898.2 446.888 8896.4 446.901C8891.84 446.901 8889.67 448.441 8889.67 452.444C8889.67 456.447 8891.44 457.913 8894.89 457.913C8897.19 457.805 8899.47 457.466 8901.7 456.902V447.781ZM8902 459.013L8901.87 458.221C8899.54 458.847 8897.16 459.235 8894.75 459.38C8893.08 459.508 8891.43 459.023 8890.09 458.016C8889.35 457.303 8888.78 456.431 8888.42 455.467C8888.06 454.502 8887.93 453.469 8888.02 452.444C8887.94 451.307 8888.16 450.168 8888.68 449.151C8889.2 448.135 8889.99 447.28 8890.96 446.681C8892.6 445.851 8894.43 445.443 8896.28 445.494C8898.12 445.515 8899.95 445.797 8901.72 446.329V440.303H8903.26V459.013H8902Z" fill="white"/>
<path d="M8925.83 446.945C8923.52 447.049 8921.23 447.398 8919 447.986V457.048C8920.7 457.671 8922.5 457.984 8924.32 457.972C8928.88 457.972 8931.04 456.432 8931.04 452.415C8931.04 448.646 8929.26 446.945 8925.83 446.945V446.945ZM8929.76 458.207C8928.11 459.017 8926.3 459.42 8924.47 459.38C8922.47 459.359 8920.49 459.023 8918.6 458.383V459.013H8917.54V440.303H8919.01V446.535C8921.29 445.952 8923.63 445.589 8925.98 445.45C8927.64 445.335 8929.29 445.813 8930.64 446.799C8931.38 447.515 8931.94 448.387 8932.3 449.352C8932.65 450.316 8932.79 451.348 8932.69 452.371C8932.78 453.512 8932.55 454.655 8932.04 455.676C8931.52 456.698 8930.73 457.558 8929.76 458.163" fill="white"/>
<path d="M8934.63 464.133V462.667C8935.37 462.667 8936.09 462.799 8936.58 462.799C8937.47 462.871 8938.36 462.644 8939.1 462.152C8939.85 461.661 8940.41 460.933 8940.7 460.086L8941.2 459.045L8934.32 445.848H8936.09L8941.96 457.197H8942.06L8947.66 445.848H8949.41L8942.08 460.614C8940.71 463.297 8939.26 464.177 8936.58 464.177C8935.93 464.206 8935.27 464.192 8934.63 464.133Z" fill="white"/>
<path d="M8970.65 451.51H8965.54V456.129H8970.67C8974.19 456.129 8975.52 455.733 8975.52 453.798C8975.52 451.862 8973.69 451.51 8970.65 451.51V451.51ZM8969.72 444.032H8965.54V448.724H8969.73C8973.21 448.724 8974.58 448.313 8974.58 446.349C8974.58 444.384 8972.84 444.032 8969.72 444.032V444.032ZM8977.63 457.771C8975.76 458.959 8973.48 459.018 8969.35 459.018H8961.56V441.172H8969.16C8972.74 441.172 8974.92 441.172 8976.74 442.316C8977.35 442.678 8977.84 443.202 8978.16 443.829C8978.49 444.456 8978.63 445.161 8978.57 445.865C8978.62 446.745 8978.36 447.615 8977.85 448.334C8977.34 449.052 8976.6 449.577 8975.76 449.824V449.926C8978.04 450.44 8979.53 451.613 8979.53 454.149C8979.58 454.87 8979.43 455.591 8979.1 456.232C8978.76 456.872 8978.26 457.405 8977.63 457.771" fill="white"/>
<path d="M8995.11 453.492C8993.64 453.36 8992.01 453.286 8990.37 453.286C8987.69 453.286 8986.75 453.829 8986.75 455.061C8986.75 456.292 8987.53 456.82 8989.58 456.82C8991.44 456.755 8993.3 456.494 8995.11 456.043V453.492ZM8995.88 459.02L8995.78 458.228C8993.45 458.889 8991.06 459.277 8988.64 459.386C8987.25 459.479 8985.86 459.141 8984.67 458.418C8984.18 458.05 8983.79 457.567 8983.53 457.011C8983.28 456.456 8983.16 455.847 8983.2 455.236C8983.17 454.488 8983.36 453.748 8983.76 453.112C8984.15 452.476 8984.73 451.974 8985.41 451.673C8986.99 451.083 8988.68 450.833 8990.36 450.94C8991.73 450.94 8993.58 451.013 8995.12 451.116V450.94C8995.12 448.887 8993.77 448.213 8990.06 448.213C8988.6 448.213 8986.9 448.286 8985.22 448.447V445.779C8987.07 445.632 8989.15 445.529 8990.87 445.529C8992.99 445.343 8995.11 445.765 8997 446.746C8998.46 447.817 8998.79 449.298 8998.79 451.263V459.049L8995.88 459.02Z" fill="white"/>
<path d="M9015.95 459.016V451.684C9015.95 449.294 9014.72 448.429 9012.54 448.429C9010.72 448.507 9008.92 448.787 9007.17 449.265V458.957H9003.55V445.76H9006.48L9006.61 446.581C9008.9 445.917 9011.26 445.519 9013.64 445.394C9015.26 445.268 9016.87 445.749 9018.15 446.743C9018.69 447.279 9019.1 447.926 9019.35 448.638C9019.6 449.351 9019.7 450.111 9019.62 450.863V458.913L9015.95 459.016Z" fill="white"/>
<path d="M9029.95 459.378C9028.2 459.514 9026.47 459.02 9025.05 457.985C9024.3 457.277 9023.73 456.406 9023.37 455.44C9023 454.475 9022.87 453.439 9022.97 452.413C9022.9 451.326 9023.11 450.239 9023.58 449.255C9024.05 448.272 9024.76 447.426 9025.65 446.797C9027.41 445.811 9029.42 445.358 9031.43 445.492C9032.9 445.492 9034.44 445.594 9036.06 445.741V448.557C9034.74 448.439 9033.13 448.322 9031.87 448.322C9028.38 448.322 9026.74 449.422 9026.74 452.442C9026.74 455.463 9027.97 456.504 9030.83 456.504C9032.69 456.447 9034.54 456.221 9036.36 455.83V458.542C9034.25 459.026 9032.11 459.306 9029.95 459.378Z" fill="white"/>
<path d="M9047.25 448.252C9043.76 448.252 9042.22 449.352 9042.22 452.343C9042.22 455.335 9043.68 456.61 9047.25 456.61C9050.81 456.61 9052.22 455.54 9052.22 452.549C9052.22 449.557 9050.75 448.252 9047.25 448.252V448.252ZM9053.55 457.989C9051.64 459.073 9049.44 459.558 9047.25 459.382C9045.04 459.552 9042.84 459.068 9040.91 457.989C9040.05 457.36 9039.37 456.518 9038.94 455.546C9038.5 454.574 9038.33 453.506 9038.43 452.446C9038.33 451.382 9038.5 450.31 9038.94 449.334C9039.37 448.357 9040.05 447.51 9040.91 446.874C9042.84 445.8 9045.04 445.321 9047.25 445.496C9049.44 445.327 9051.63 445.807 9053.55 446.874C9054.4 447.507 9055.08 448.351 9055.51 449.323C9055.94 450.294 9056.11 451.36 9056 452.417C9056.1 453.478 9055.93 454.547 9055.5 455.523C9055.08 456.499 9054.4 457.348 9053.55 457.989" fill="white"/>
<path d="M9077.2 459.384C9074.91 459.529 9072.64 458.87 9070.79 457.522C9068.65 455.762 9068 453.02 9068 450.073C9067.93 448.607 9068.22 447.146 9068.85 445.822C9069.48 444.498 9070.44 443.353 9071.62 442.492C9073.93 441.218 9076.55 440.633 9079.18 440.806C9081.16 440.806 9083.18 440.938 9085.39 441.113V444.325C9083.5 444.163 9081.16 444.032 9079.34 444.032C9074.25 444.032 9072.09 445.967 9072.09 450.073C9072.09 454.179 9074.09 456.143 9077.84 456.143C9080.52 456.056 9083.18 455.697 9085.79 455.073V458.27C9082.97 458.93 9080.09 459.309 9077.2 459.399" fill="white"/>
<path d="M9096.6 447.84C9093.55 447.84 9092.37 448.925 9092.2 450.934H9101C9100.89 448.793 9099.65 447.84 9096.6 447.84ZM9096.05 459.38C9094.08 459.558 9092.11 459.039 9090.48 457.914C9089.74 457.217 9089.16 456.359 9088.79 455.407C9088.43 454.455 9088.28 453.432 9088.37 452.415C9088.31 451.362 9088.51 450.31 9088.93 449.347C9089.36 448.383 9090.01 447.535 9090.83 446.872C9092.57 445.831 9094.58 445.349 9096.6 445.494C9098.59 445.371 9100.57 445.829 9102.3 446.814C9104.41 448.28 9104.59 450.597 9104.62 453.309H9092.11C9092.2 455.318 9093.27 456.609 9096.96 456.609C9099.31 456.557 9101.66 456.331 9103.97 455.934V458.515C9101.36 459.011 9098.71 459.3 9096.05 459.38Z" fill="white"/>
<path d="M9120.94 459.016V451.684C9120.94 449.294 9119.72 448.429 9117.54 448.429C9115.72 448.507 9113.92 448.787 9112.17 449.265V458.957H9108.49V445.76H9111.5L9111.63 446.581C9113.92 445.916 9116.27 445.518 9118.65 445.394C9120.27 445.268 9121.88 445.749 9123.17 446.743C9123.7 447.279 9124.11 447.926 9124.37 448.638C9124.62 449.351 9124.71 450.111 9124.64 450.863V458.913L9120.94 459.016Z" fill="white"/>
<path d="M9135.05 459.378C9134.24 459.457 9133.42 459.326 9132.67 458.997C9131.92 458.668 9131.27 458.153 9130.78 457.501C9130.05 456.304 9129.72 454.91 9129.81 453.513V448.586H9127.16V445.859H9129.81L9130.21 441.87H9133.47V445.859H9138.64V448.586H9133.47V452.809C9133.41 453.661 9133.54 454.515 9133.83 455.316C9134.06 455.742 9134.4 456.088 9134.83 456.306C9135.26 456.524 9135.75 456.604 9136.22 456.534C9137.1 456.518 9137.98 456.43 9138.85 456.27V458.909C9137.6 459.183 9136.33 459.34 9135.05 459.378" fill="white"/>
<path d="M9142.25 459.015V445.818H9145.18L9145.31 446.639C9147.41 445.931 9149.61 445.531 9151.82 445.452H9152.29V448.59C9151.87 448.59 9151.38 448.59 9151.02 448.59C9149.27 448.596 9147.54 448.822 9145.86 449.264V458.986L9142.25 459.015Z" fill="white"/>
<path d="M9165.69 453.492C9164.15 453.36 9162.58 453.286 9160.94 453.286C9158.25 453.286 9157.31 453.829 9157.31 455.061C9157.31 456.292 9158.11 456.82 9160.16 456.82C9162.02 456.753 9163.88 456.493 9165.69 456.043V453.492ZM9166.46 459.02L9166.32 458.272C9163.99 458.932 9161.59 459.32 9159.18 459.43C9157.78 459.521 9156.39 459.184 9155.19 458.463C9154.7 458.092 9154.31 457.609 9154.06 457.054C9153.8 456.499 9153.69 455.89 9153.72 455.281C9153.68 454.511 9153.89 453.75 9154.31 453.103C9154.73 452.457 9155.34 451.957 9156.05 451.673C9157.62 451.096 9159.3 450.856 9160.96 450.97C9162.34 450.97 9164.2 451.043 9165.74 451.146V450.94C9165.74 448.887 9164.38 448.213 9160.69 448.213C9159.22 448.213 9157.5 448.286 9155.83 448.447V445.779C9157.69 445.632 9159.78 445.529 9161.49 445.529C9163.6 445.343 9165.73 445.765 9167.61 446.747C9169.07 447.817 9169.41 449.298 9169.41 451.263V459.049L9166.46 459.02Z" fill="white"/>
<path d="M9174.07 440.303H9177.75V459.013H9174.07V440.303Z" fill="white"/>
<path d="M9815.95 417.897V300.914C9815.94 300.777 9815.96 300.641 9816.01 300.514C9816.06 300.386 9816.13 300.269 9816.23 300.169C9816.32 300.07 9816.43 299.989 9816.55 299.933C9816.68 299.877 9816.81 299.845 9816.95 299.841H9839.48C9839.77 299.841 9840.04 299.954 9840.24 300.155C9840.44 300.356 9840.55 300.629 9840.55 300.914V343.069H9840.9C9843.93 339.445 9847.76 336.573 9852.09 334.681C9856.42 332.789 9861.13 331.929 9865.85 332.167C9883.54 332.167 9889.22 343.727 9889.22 359.059V417.897C9889.22 418.182 9889.1 418.454 9888.9 418.656C9888.7 418.857 9888.43 418.97 9888.14 418.97H9865.54C9865.26 418.97 9864.99 418.857 9864.78 418.656C9864.58 418.454 9864.47 418.182 9864.47 417.897V361.24C9864.47 354.595 9857.55 352.553 9853.12 352.553C9848.69 352.553 9840.55 355.46 9840.55 363.766V417.897C9840.55 418.182 9840.44 418.454 9840.24 418.656C9840.04 418.857 9839.77 418.97 9839.48 418.97H9817.02C9816.88 418.97 9816.74 418.942 9816.61 418.888C9816.48 418.834 9816.36 418.755 9816.26 418.656C9816.16 418.556 9816.08 418.438 9816.03 418.308C9815.97 418.177 9815.95 418.038 9815.95 417.897V417.897Z" fill="white"/>
<path d="M9995.27 394.783V354.6H9984.89C9984.75 354.6 9984.61 354.573 9984.48 354.519C9984.35 354.465 9984.23 354.386 9984.13 354.286C9984.03 354.187 9983.95 354.068 9983.9 353.938C9983.84 353.808 9983.82 353.668 9983.82 353.528V338.922C9983.82 338.7 9983.89 338.484 9984.02 338.305C9984.15 338.125 9984.33 337.99 9984.54 337.918L9998.39 333.869L10005.8 310.784C10005.8 310.631 10005.9 310.498 10006.1 310.396C10006.2 310.293 10006.4 310.225 10006.5 310.195H10018.6C10018.8 310.186 10018.9 310.205 10019 310.251C10019.2 310.297 10019.3 310.369 10019.4 310.464C10019.5 310.558 10019.6 310.672 10019.6 310.798C10019.7 310.925 10019.7 311.061 10019.7 311.199V334.042H10037.9C10038.2 334.042 10038.4 334.155 10038.6 334.356C10038.8 334.557 10039 334.83 10039 335.115V353.597C10039 353.872 10038.8 354.136 10038.6 354.331C10038.5 354.526 10038.2 354.635 10037.9 354.635H10019.7V392.222C10019.7 396.133 10021.9 398.521 10027.4 398.521H10037.7C10037.9 398.512 10038 398.532 10038.2 398.582C10038.3 398.632 10038.4 398.709 10038.5 398.81C10038.7 398.91 10038.7 399.032 10038.8 399.167C10038.9 399.302 10038.9 399.447 10038.9 399.594V415.826C10038.9 416.043 10038.8 416.254 10038.7 416.432C10038.6 416.61 10038.4 416.749 10038.2 416.83C10032.8 419.315 10026.9 420.613 10020.9 420.637C10002.8 420.637 9995.34 409.908 9995.34 394.783H9995.27Z" fill="white"/>
<path d="M10346.9 394.798V354.615H10336.5C10336.2 354.615 10336 354.502 10335.8 354.301C10335.6 354.099 10335.5 353.826 10335.5 353.542V338.936C10335.5 338.714 10335.5 338.499 10335.7 338.319C10335.8 338.139 10336 338.004 10336.2 337.933L10350 333.883L10357.4 310.798C10357.5 310.585 10357.6 310.399 10357.8 310.268C10358 310.138 10358.2 310.068 10358.4 310.071H10370.5C10370.7 310.062 10370.8 310.081 10370.9 310.127C10371.1 310.173 10371.2 310.245 10371.3 310.34C10371.4 310.434 10371.5 310.548 10371.5 310.674C10371.6 310.801 10371.6 310.937 10371.6 311.075V333.849H10389.8C10390 333.849 10390.3 333.962 10390.5 334.163C10390.7 334.364 10390.8 334.637 10390.8 334.922V353.403C10390.8 353.679 10390.7 353.943 10390.5 354.138C10390.3 354.332 10390.1 354.442 10389.8 354.442H10371.6V392.167C10371.6 396.078 10373.8 398.466 10379.2 398.466H10389.6C10389.8 398.466 10389.9 398.494 10390 398.548C10390.2 398.602 10390.3 398.681 10390.4 398.781C10390.5 398.88 10390.6 398.998 10390.6 399.129C10390.7 399.259 10390.7 399.398 10390.7 399.539V415.771C10390.7 415.988 10390.6 416.199 10390.5 416.377C10390.4 416.556 10390.2 416.694 10390 416.775C10384.6 419.26 10378.7 420.558 10372.7 420.582C10354.4 420.582 10346.9 409.853 10346.9 394.728V394.798Z" fill="white"/>
<path d="M10053.9 417.86V334.795C10053.9 334.51 10054 334.238 10054.2 334.036C10054.4 333.835 10054.7 333.722 10055 333.722H10075.2C10075.5 333.719 10075.7 333.788 10075.9 333.919C10076 334.05 10076.2 334.236 10076.2 334.449L10078.6 342.894H10078.9C10081.9 339.289 10085.7 336.428 10090 334.536C10094.3 332.644 10098.9 331.773 10103.6 331.992C10115.7 331.992 10121.5 337.425 10124.8 345.836H10125.5C10128.3 341.368 10132.2 337.73 10136.9 335.297C10141.6 332.864 10146.9 331.723 10152.1 331.992C10169.8 331.992 10175.5 343.551 10175.5 358.884V417.722C10175.5 418.006 10175.4 418.279 10175.2 418.48C10175 418.681 10174.7 418.794 10174.4 418.794H10151.9C10151.6 418.794 10151.3 418.681 10151.1 418.48C10150.9 418.279 10150.8 418.006 10150.8 417.722V361.514C10150.8 354.869 10144.6 352.308 10140.1 352.308C10135 352.308 10127.4 355.561 10127 363.037V417.86C10127 417.996 10127 418.132 10127 418.26C10126.9 418.388 10126.9 418.505 10126.8 418.604C10126.7 418.704 10126.6 418.784 10126.4 418.841C10126.3 418.897 10126.2 418.928 10126 418.933H10103.4C10103.1 418.916 10102.8 418.796 10102.6 418.598C10102.5 418.399 10102.3 418.136 10102.3 417.86V361.514C10102.3 354.869 10095.7 352.308 10090.8 352.308C10087.7 352.279 10084.6 353.493 10082.3 355.692C10080 357.89 10078.7 360.899 10078.6 364.075V417.86C10078.5 418.136 10078.4 418.399 10078.2 418.598C10078.1 418.796 10077.8 418.916 10077.5 418.933H10055C10054.7 418.933 10054.4 418.826 10054.2 418.633C10054 418.44 10053.9 418.176 10053.9 417.895V417.86Z" fill="white"/>
<path d="M10190.3 352.559V337.296C10190.3 337.052 10190.4 336.817 10190.6 336.63C10190.8 336.442 10191 336.311 10191.2 336.258C10202 333.902 10213 332.592 10224.1 332.347C10245.9 332.347 10258.7 337.607 10258.7 361.108V417.904C10258.7 418.188 10258.6 418.461 10258.4 418.662C10258.2 418.864 10257.9 418.977 10257.6 418.977H10236.2C10235.9 418.975 10235.7 418.896 10235.5 418.752C10235.3 418.607 10235.2 418.406 10235.2 418.181L10232.7 409.77H10233.7C10227.5 418.284 10219.4 420.672 10209.4 420.672C10193.5 420.672 10184.9 408.247 10184.9 393.607C10184.9 371.491 10201.1 367.061 10213.2 367.061H10233.9V361.523C10233.9 354.601 10228.8 353.044 10209 353.044C10200.7 353.044 10191.7 353.701 10191.3 353.701C10191.1 353.667 10190.8 353.532 10190.6 353.322C10190.4 353.111 10190.3 352.84 10190.3 352.559V352.559ZM10234 382.29H10220.5C10213.4 382.29 10208.7 385.024 10208.7 392.673C10208.7 400.91 10214.6 402.779 10220.3 402.779C10222 402.872 10223.8 402.625 10225.4 402.051C10227 401.477 10228.5 400.588 10229.8 399.434C10231.1 398.28 10232.1 396.885 10232.9 395.326C10233.6 393.768 10234.1 392.079 10234.2 390.354C10234.2 389.881 10234.2 389.407 10234.2 388.935V382.013L10234 382.29Z" fill="white"/>
<path d="M10273 417.856V334.791C10273 334.645 10273.1 334.502 10273.1 334.371C10273.2 334.241 10273.3 334.126 10273.4 334.035C10273.5 333.943 10273.7 333.877 10273.8 333.84C10273.9 333.804 10274.1 333.797 10274.2 333.822H10294.3C10294.6 333.811 10294.8 333.894 10295 334.054C10295.2 334.214 10295.3 334.44 10295.3 334.687L10297.7 347.597H10298.1C10300.6 342.831 10304.4 338.859 10309 336.126C10313.6 333.394 10319 332.008 10324.3 332.126C10324.5 332.126 10324.6 332.154 10324.8 332.208C10324.9 332.262 10325 332.341 10325.1 332.44C10325.2 332.54 10325.3 332.658 10325.3 332.788C10325.4 332.919 10325.4 333.058 10325.4 333.199V356.319C10325.4 356.603 10325.3 356.876 10325.1 357.077C10324.9 357.279 10324.6 357.392 10324.3 357.392H10318.6C10303.1 357.392 10297.8 363.587 10297.8 371.236V417.718C10297.8 417.994 10297.7 418.257 10297.5 418.455C10297.3 418.654 10297.1 418.773 10296.8 418.791H10274.2C10273.9 418.821 10273.7 418.74 10273.4 418.566C10273.2 418.392 10273.1 418.138 10273 417.856V417.856Z" fill="white"/>
<path d="M9899.51 376.413C9899.51 349.348 9909.89 332.181 9940 332.181C9970.11 332.181 9980.67 349.486 9980.67 376.413C9980.67 403.34 9970.11 420.645 9940 420.645C9909.89 420.645 9899.51 403.652 9899.51 376.413ZM9926.09 376.413C9926.09 391.053 9928.23 400.018 9939.93 400.018C9951.63 400.018 9954.02 391.053 9954.02 376.413C9954.02 361.773 9951.84 352.947 9939.93 352.947C9928.03 352.947 9926.09 361.773 9926.09 376.413Z" fill="white"/>
<path d="M9769.72 367.958C9770.9 344.804 9762.8 306.94 9743.55 275.963C9743.04 275.167 9742.17 275.479 9742.34 276.31C9743.62 281.017 9743.93 289.565 9736.46 289.046C9723.17 288.146 9736.91 259.697 9707.73 239.969C9707.68 239.909 9707.61 239.861 9707.54 239.828C9707.46 239.796 9707.38 239.779 9707.3 239.779C9707.22 239.779 9707.14 239.796 9707.06 239.828C9706.99 239.861 9706.92 239.909 9706.87 239.969C9706.78 240.078 9706.74 240.212 9706.74 240.349C9706.74 240.487 9706.78 240.621 9706.87 240.73C9708.87 244.537 9710.05 256.409 9705.45 260.458C9701.74 263.711 9695.06 262.846 9688.39 252.151C9683.93 244.783 9681.62 236.317 9681.72 227.707C9681.82 219.097 9684.32 210.686 9688.94 203.42C9689.49 202.52 9688.73 202.174 9688.11 202.382C9647.96 215.637 9639.93 262.985 9631.38 280.22C9629.96 283.128 9628.72 284.616 9626.26 284.478C9618.96 283.993 9624.22 268.384 9626.74 262.95C9626.78 262.873 9626.8 262.79 9626.8 262.706C9626.8 262.622 9626.78 262.538 9626.75 262.461C9626.72 262.383 9626.67 262.313 9626.61 262.254C9626.55 262.195 9626.48 262.15 9626.4 262.119C9626.3 262.054 9626.19 262.019 9626.07 262.019C9625.95 262.019 9625.84 262.054 9625.74 262.119C9602.28 287.908 9587.29 320.269 9582.79 354.841C9582.79 354.045 9582.44 357.679 9582.24 360.344C9582.23 361.397 9582.16 362.449 9582.03 363.493V367.266C9582.25 391.905 9592.14 415.471 9609.57 432.887C9627 450.304 9650.57 460.178 9675.21 460.382C9699.85 460.586 9723.58 451.105 9741.3 433.979C9759.02 416.854 9769.3 393.455 9769.93 368.823C9769.78 368.559 9769.71 368.26 9769.72 367.958V367.958ZM9675.48 411.602C9666.85 411.56 9658.43 408.959 9651.28 404.127C9644.13 399.296 9638.58 392.451 9635.33 384.462C9632.07 376.472 9631.27 367.696 9633 359.246C9634.74 350.796 9638.95 343.052 9645.09 336.996C9651.24 330.939 9659.04 326.843 9667.52 325.226C9675.99 323.608 9684.75 324.543 9692.7 327.911C9700.64 331.278 9707.4 336.928 9712.13 344.143C9716.86 351.359 9719.34 359.816 9719.26 368.442V368.442C9719.15 379.963 9714.48 390.971 9706.28 399.059C9698.07 407.148 9687 411.657 9675.48 411.602V411.602Z" fill="white"/>
<defs>
<clipPath id="clip0_1548_4923">
<rect width="710.475" height="404.67" fill="white" transform="translate(144.518 144.496)"/>
</clipPath>
</defs>
</svg>
